<?xml version="1.0" encoding="UTF-8" standalone="no"?><!DOCTYPE svg PUBLIC "-//W3C//DTD SVG 1.1//EN" "http://www.w3.org/Graphics/SVG/1.1/DTD/svg11.dtd"><svg width="100%" height="100%" viewBox="0 0 144 144" version="1.1" xmlns="http://www.w3.org/2000/svg" xmlns:xlink="http://www.w3.org/1999/xlink" xml:space="preserve" xmlns:serif="http://www.serif.com/" style="fill-rule:evenodd;clip-rule:evenodd;stroke-linecap:round;stroke-linejoin:round;stroke-miterlimit:1.5;"><circle cx="72" cy="72" r="72" style="fill:white;stroke:black;stroke-opacity:0.02;stroke-width:3.75px;"/><g transform="matrix(1,0,0,1,3.05482,0)"><path d="M81.0708,56.6476L92.943,45.0205L95.869,44.9435L121.8182,72L122.0492,96.8418" style="fill:rgb(235,235,235);fill-opacity:0;stroke:black;stroke-width:3.75px;"/></g><g transform="matrix(1,0,0,1,3.05482,0)"><path d="M76.594,52.4466C81.0323,48.2063 89.9087,39.7255 93.1299,37.1236C93.8575,36.5358 95.249,36.1842 95.9212,36.8348C101.6779,42.4069 127.6701,70.5564 127.6701,70.5564L127.5383,100.4171L125.9497,102.1073L102.9358,101.9595L101.901,99.939L101.8576,83.468L99.985,82.1867L90.9174,82.4331L88.9955,84.3058L88.9895,106.099L91.01,108.962L127.8717,108.962" style="fill:rgb(235,235,235);fill-opacity:0;stroke:black;stroke-width:3.75px;"/></g><g transform="matrix(1,0,0,1,3,0)"><path d="M10.8034,108.3095L52.725,107.9335L53.1108,81.9973L51.3603,79.9357L42.0477,79.9347L39.9351,81.8021L39.8966,102.0532L18.914,102.0532L19.0454,68.1017L47.1506,39.8425L50.0181,39.8703L74.073,65.0532L74.1223,99.993L72,102.8019L70.9684,102.8512L68.9479,100.8307L68.9479,67.9115L72.5714,63.4812L68.7013,59.4297L62.1965,67.8622L61.987,101.8656L68.9971,108.962L73.9745,108.962L81.0708,101.9642L80.7567,64.1184L50.1904,32.1507L47.0141,32.1507L12.7489,67.186L12.5564,101.7399" style="fill:rgb(235,235,235);fill-opacity:0;stroke:black;stroke-width:3.75px;"/></g></svg>